<?xml version="1.0" standalone="no"?>
<!DOCTYPE svg PUBLIC "-//W3C//DTD SVG 20010904//EN"
 "http://www.w3.org/TR/2001/REC-SVG-20010904/DTD/svg10.dtd">
<svg version="1.0" xmlns="http://www.w3.org/2000/svg"
 width="407.000000pt" height="407.000000pt" viewBox="0 0 407.000000 407.000000"
 preserveAspectRatio="xMidYMid meet">
<metadata>
Created by potrace 1.14, written by Peter Selinger 2001-2017
</metadata>
<g transform="translate(0.000000,407.000000) scale(0.100000,-0.100000)"
fill="#000000" stroke="none">
<path d="M0 3635 l0 -435 23 0 c38 0 95 20 101 35 3 8 15 15 26 15 11 0 20 4
20 9 0 5 9 11 20 14 13 3 20 14 20 31 0 36 32 49 122 48 62 0 76 2 71 14 -3 8
-1 14 5 14 5 0 12 -7 16 -15 6 -16 36 -20 52 -6 18 17 82 21 88 5 3 -8 19 -14
38 -14 18 0 58 -7 88 -15 30 -8 67 -15 82 -15 14 0 28 -4 30 -10 6 -19 168
-23 241 -6 81 19 80 19 72 6 -3 -6 15 1 41 15 56 30 134 33 184 9 36 -18 35
-19 65 30 6 9 19 19 30 21 11 2 40 9 65 15 24 6 54 9 65 6 12 -3 46 4 75 15
37 14 65 18 88 14 23 -4 39 -2 51 8 9 8 33 17 54 21 20 4 37 11 37 16 0 6 3 9
8 8 4 0 15 2 25 5 20 8 38 14 52 17 6 1 15 6 22 12 7 5 17 7 22 3 13 -7 43 8
41 21 0 5 10 10 22 12 19 2 20 1 8 -9 -12 -9 -11 -10 5 -3 11 4 47 10 80 13
33 4 66 10 73 14 7 5 14 2 18 -7 3 -9 13 -16 21 -16 11 0 8 6 -8 19 -18 14
-30 17 -53 10 -51 -15 -54 -10 -7 11 24 11 54 20 68 20 22 0 24 -2 12 -16 -11
-14 -9 -15 23 -9 22 4 38 3 42 -4 4 -6 22 -11 39 -12 27 0 29 -2 12 -9 -17 -7
-15 -9 11 -9 43 -1 98 10 86 18 -6 3 11 6 37 6 39 0 45 -2 34 -13 -7 -7 -17
-10 -23 -7 -5 3 -10 1 -10 -5 0 -7 12 -9 33 -5 17 3 73 2 122 -3 98 -8 128 -6
119 9 -3 5 -8 22 -10 36 -3 15 -6 29 -8 30 -1 2 -119 5 -262 8 -142 4 -263 10
-267 14 -20 20 33 26 271 29 l252 4 0 51 c1 116 40 208 122 290 l59 57 -1481
0 -1480 0 0 -435z m2374 -40 c19 -15 19 -15 -2 -15 -12 0 -22 4 -22 9 0 5 -12
12 -27 14 l-28 4 30 1 c17 1 39 -5 49 -13z m93 -21 c-3 -3 -12 -4 -19 -1 -8 3
-5 6 6 6 11 1 17 -2 13 -5z m166 -11 c-7 -2 -19 -2 -25 0 -7 3 -2 5 12 5 14 0
19 -2 13 -5z m92 -3 c-3 -5 -12 -10 -18 -10 -7 0 -6 4 3 10 19 12 23 12 15 0z
m-725 -10 c0 -5 -2 -10 -4 -10 -3 0 -8 5 -11 10 -3 6 -1 10 4 10 6 0 11 -4 11
-10z"/>
<path d="M3926 4008 c70 -70 117 -108 133 -108 7 0 11 30 11 85 l0 85 -103 0
-103 0 62 -62z"/>
<path d="M2188 3543 c7 -3 16 -2 19 1 4 3 -2 6 -13 5 -11 0 -14 -3 -6 -6z"/>
<path d="M2303 3513 c9 -2 23 -2 30 0 6 3 -1 5 -18 5 -16 0 -22 -2 -12 -5z"/>
<path d="M2588 3513 c7 -3 16 -2 19 1 4 3 -2 6 -13 5 -11 0 -14 -3 -6 -6z"/>
<path d="M2628 3513 c6 -2 18 -2 25 0 6 3 1 5 -13 5 -14 0 -19 -2 -12 -5z"/>
<path d="M2730 3509 c0 -5 5 -7 10 -4 6 3 10 8 10 11 0 2 -4 4 -10 4 -5 0 -10
-5 -10 -11z"/>
<path d="M2763 3506 c-6 -8 -9 -17 -6 -20 10 -10 -6 -7 -28 4 -15 9 -19 7 -19
-7 0 -13 -3 -14 -12 -5 -15 15 -32 16 -23 2 3 -5 2 -10 -4 -10 -5 0 -11 6 -14
13 -4 10 -7 10 -18 0 -7 -7 -21 -13 -31 -13 -10 0 -18 -4 -18 -9 0 -6 24 -7
55 -4 38 4 64 1 82 -8 23 -12 27 -11 44 10 30 37 23 82 -8 47z"/>
<path d="M2560 2956 c-13 -35 -14 -712 -1 -721 5 -3 11 -2 13 2 2 5 1 154 -4
333 -5 214 -4 338 3 364 12 45 4 61 -11 22z"/>
<path d="M2421 2718 c-17 -18 -31 -36 -31 -40 0 -4 -7 -4 -17 -1 -12 5 -14 3
-8 -8 7 -10 2 -9 -17 3 -26 17 -27 17 -55 -11 -15 -16 -50 -72 -77 -125 -27
-53 -53 -96 -58 -96 -5 0 -6 4 -3 10 4 6 -5 6 -22 -1 -15 -6 -41 -12 -57 -15
-32 -4 -52 -17 -21 -14 42 5 55 0 55 -20 0 -30 -28 -37 -46 -11 -14 19 -17 20
-31 6 -21 -21 -46 -15 -53 12 -4 17 -9 20 -20 13 -8 -5 -26 -10 -40 -10 -20 0
-22 -2 -10 -10 19 -12 7 -23 -49 -40 -40 -13 -44 -12 -57 4 -10 14 -11 24 -2
39 9 17 8 19 -7 14 -9 -4 -29 -7 -45 -7 -24 0 -29 -5 -32 -27 -3 -24 -8 -28
-40 -31 -36 -3 -38 -2 -38 27 0 24 -4 31 -20 31 -16 0 -20 -7 -20 -30 0 -28
-3 -30 -35 -30 -30 0 -35 3 -35 25 0 20 -6 25 -34 30 -19 4 -42 5 -53 2 -10
-3 -1 -5 20 -6 32 -1 37 -4 37 -25 0 -19 -7 -26 -30 -30 -16 -3 -43 -9 -60
-12 -18 -3 -30 -1 -30 5 0 6 -7 7 -17 4 -10 -4 -14 -2 -10 4 4 7 -4 8 -25 4
-17 -4 -33 -12 -36 -20 -5 -14 57 -13 592 14 149 8 273 12 278 9 4 -3 8 4 8
15 0 11 -4 23 -10 26 -5 3 -10 10 -10 16 0 11 88 -32 148 -73 40 -27 42 -31
42 -78 0 -54 -1 -55 -30 -40 -10 6 -43 16 -72 24 -51 13 -53 15 -58 52 l-5 39
-90 -2 c-275 -7 -1070 -58 -1084 -69 -16 -14 36 -12 270 5 242 19 676 41 792
41 45 0 48 -1 42 -22 -4 -13 -13 -36 -21 -51 -9 -19 -9 -27 -2 -25 7 3 19 26
28 53 18 54 40 71 40 32 0 -27 -84 -147 -103 -147 -8 0 -7 3 2 9 9 6 10 11 2
15 -6 4 -15 5 -20 1 -6 -3 -92 -6 -193 -7 -131 -1 -163 -3 -113 -8 39 -4 117
-5 175 -4 78 2 93 1 60 -5 -25 -5 -130 -11 -235 -14 -104 -3 -165 -2 -135 2
32 3 50 9 43 14 -26 17 -643 -27 -655 -47 -5 -7 -8 -3 -8 9 -1 40 -11 43 -85
31 -52 -9 -69 -16 -67 -27 9 -34 4 -111 -6 -121 -9 -9 -12 8 -12 70 0 45 3 82
8 82 15 0 137 21 150 25 28 10 1 23 -31 15 -17 -4 -45 -11 -62 -14 l-30 -7 25
21 c14 11 22 20 19 20 -13 0 -78 -30 -84 -40 -3 -5 -8 -57 -10 -115 l-3 -106
76 7 c43 4 80 9 83 13 4 3 14 32 23 64 20 69 36 75 25 10 -4 -27 -8 -53 -8
-60 -1 -9 53 -12 216 -12 307 0 366 -10 381 -64 10 -37 3 -647 -8 -647 -13 0
-30 -51 -30 -89 0 -21 -6 -43 -12 -49 -25 -20 -177 -31 -501 -37 l-327 -5 -10
26 c-6 14 -10 111 -10 215 0 131 -3 188 -11 184 -6 -4 -9 -33 -7 -68 4 -90 -1
-301 -7 -295 -3 2 -7 191 -10 419 -5 366 -7 451 -13 482 -1 5 -9 2 -17 -6 -22
-23 -89 -31 -129 -16 -36 13 -46 11 -50 -13 -2 -13 -27 -52 -99 -151 -43 -59
-217 -242 -217 -228 0 5 11 23 25 39 14 17 32 47 41 68 15 35 15 39 -2 51 -13
9 -15 16 -7 24 16 16 4 46 -20 53 -37 10 -47 7 -47 -14 0 -19 -22 -27 -55 -20
-5 1 -4 -4 2 -11 15 -15 17 -33 4 -24 -5 3 -12 1 -16 -5 -4 -6 -11 -8 -16 -5
-5 4 -6 -2 -2 -11 5 -13 3 -16 -10 -11 -14 5 -16 -23 -17 -309 l0 -315 114 7
c80 5 120 3 129 -4 11 -9 19 -5 37 20 20 27 23 44 24 112 1 80 1 80 31 90 17
5 39 13 51 18 12 6 50 8 85 5 94 -8 114 -12 113 -25 -1 -7 -2 -17 -3 -24 0 -6
-15 1 -31 17 l-30 29 0 -87 c0 -100 6 -95 -120 -99 l-75 -3 -37 -75 c-20 -41
-39 -92 -42 -113 l-5 -38 622 5 c342 3 758 8 925 12 l303 7 -2 -194 c-2 -249
1 -243 -114 -234 -46 4 -88 4 -94 1 -6 -4 -49 -8 -97 -10 -77 -2 -88 -5 -106
-27 -19 -24 -19 -24 -8 -1 6 13 9 27 5 30 -6 6 -337 3 -344 -3 -2 -2 8 -25 23
-51 14 -25 19 -41 11 -34 -8 6 -17 20 -20 31 -4 11 -11 16 -17 13 -7 -4 -8 -2
-4 4 4 7 2 12 -4 12 -6 0 -8 5 -4 12 7 11 -22 10 -397 -8 -68 -3 -77 -1 -82
15 -4 17 -22 18 -303 20 -193 1 -303 6 -311 13 -7 6 -13 30 -13 54 l0 44 -105
0 -105 0 0 -106 0 -105 68 6 c37 3 105 9 151 14 65 6 86 4 97 -7 8 -7 14 -17
14 -22 0 -5 16 -29 35 -54 19 -25 32 -46 29 -46 -8 0 -74 72 -74 81 0 15 -29
17 -116 7 -49 -6 -104 -10 -121 -10 -18 0 -33 -3 -33 -8 0 -4 -11 -5 -25 -2
l-25 4 0 -216 0 -216 527 3 528 3 105 27 c58 16 124 31 148 34 23 3 42 10 42
14 0 5 13 9 29 9 40 0 91 11 87 19 -2 3 15 7 38 8 23 1 87 11 142 23 54 12
113 24 129 27 17 2 39 8 50 13 24 11 129 35 210 49 33 6 92 20 130 32 111 33
218 59 247 59 20 0 25 -4 21 -18 -4 -18 0 -18 62 -10 37 5 79 8 94 6 25 -3 6
-10 -129 -52 -8 -2 2 -5 22 -5 58 -1 88 -17 88 -46 0 -25 0 -25 74 -19 50 5
75 3 80 -5 4 -6 22 -11 39 -12 31 -1 31 -1 7 -9 l-25 -8 25 -1 c26 -1 124 30
137 42 3 4 17 7 30 7 13 0 21 4 18 10 -3 5 0 7 8 4 8 -3 49 4 92 15 44 12 91
21 107 21 15 0 28 3 28 8 0 4 12 8 28 8 39 2 312 75 387 104 101 39 216 78
280 95 44 12 45 12 115 38 l65 25 3 57 c3 56 2 57 -20 50 -13 -4 -51 -9 -85
-12 -52 -4 -63 -3 -63 10 0 15 8 17 123 32 l47 6 0 46 0 45 -37 -7 c-100 -20
-112 -22 -108 -15 3 5 29 13 57 20 29 6 61 14 71 17 15 4 17 23 17 224 l0 219
-30 0 c-16 0 -30 5 -30 10 0 6 14 10 30 10 l30 0 0 170 0 169 -32 11 -33 10
33 -3 c28 -3 32 0 32 20 0 27 -9 29 -36 8 -22 -16 -48 -20 -39 -5 4 6 -6 10
-22 10 -22 0 -25 -2 -13 -11 17 -11 -46 -4 -90 11 -14 5 -40 11 -58 14 -19 3
-47 17 -64 31 -21 18 -37 24 -56 20 -21 -4 -23 -3 -8 3 18 8 17 10 -11 20 -17
5 -34 8 -37 5 -3 -4 -6 1 -6 10 0 9 -5 19 -11 23 -9 5 -10 -1 -5 -22 4 -16 12
-32 18 -35 6 -4 6 -9 1 -12 -10 -6 -17 -198 -8 -226 3 -11 12 -18 19 -15 8 3
20 -9 30 -29 18 -40 20 -51 6 -42 -19 12 -10 -7 12 -24 l22 -18 -24 -29 c-21
-26 -22 -23 -4 21 4 9 -1 17 -10 21 -9 3 -16 16 -17 28 0 20 -1 20 -9 1 -7
-16 -9 -14 -9 14 -1 46 -7 36 -14 -23 -6 -43 -17 -77 -17 -48 0 5 -15 20 -34
31 -39 24 -102 27 -159 6 l-39 -13 -52 47 c-29 27 -79 67 -110 91 -52 40 -59
42 -84 30 -15 -6 -54 -20 -86 -31 -59 -18 -60 -18 -73 1 -27 38 -43 25 -43
-34 0 -89 9 -100 107 -146 48 -23 99 -47 113 -55 14 -7 71 -37 127 -66 57 -29
113 -62 125 -73 12 -11 30 -19 40 -18 10 2 30 -6 44 -17 15 -12 32 -21 39 -21
7 0 31 -14 53 -30 33 -24 42 -36 42 -60 0 -17 -2 -30 -5 -30 -2 0 -44 19 -92
43 -48 24 -115 54 -148 67 -33 13 -82 34 -110 46 -27 12 -77 33 -110 47 -129
54 -220 97 -237 112 -24 20 -32 19 -23 -2 5 -15 4 -16 -7 -5 -10 10 -14 140
-16 638 -4 577 -5 624 -20 620 -10 -3 -41 -6 -69 -7 l-53 -2 0 -70 c0 -60 -2
-68 -16 -63 -14 5 -15 4 -5 -8 9 -11 14 -102 18 -318 l5 -303 -24 20 c-12 11
-25 22 -28 25 -3 3 -22 13 -42 22 -21 10 -38 23 -38 30 0 9 3 9 12 0 7 -7 16
-12 22 -12 5 0 1 6 -9 14 -11 8 -25 12 -32 9 -7 -3 -13 -1 -13 5 0 5 11 13 24
16 13 3 26 13 30 21 4 12 0 14 -22 9 -45 -10 -49 -25 -49 -161 -1 -120 0 -123
7 -48 4 44 5 92 2 108 -3 16 0 27 7 27 6 0 11 -4 11 -8 0 -5 18 -14 39 -21 21
-6 42 -18 45 -26 3 -8 12 -15 21 -15 8 0 15 -4 15 -10 0 -12 -37 -14 -42 -2
-1 4 -20 18 -40 31 l-38 23 1 -234 c0 -170 3 -225 11 -203 5 17 10 39 10 50 0
11 2 15 4 9 3 -6 21 -9 43 -7 36 3 38 2 34 -20 -7 -34 25 -45 33 -12 3 13 3
29 -1 34 -3 6 -1 11 4 11 7 0 11 -32 11 -85 0 -78 -2 -85 -20 -85 -29 0 -35 3
-34 18 1 6 -2 12 -7 12 -5 0 -9 -9 -9 -19 0 -13 -9 -21 -29 -26 -16 -3 -35
-13 -42 -21 -15 -18 -13 -18 56 6 32 11 65 20 74 19 9 0 -13 -10 -50 -22 -36
-12 -81 -33 -100 -46 -18 -13 -28 -18 -21 -11 34 38 -17 41 -70 5 -57 -39 -55
-30 6 30 57 56 68 81 41 91 -10 4 -15 18 -15 38 0 17 -5 55 -12 84 -11 50 -11
56 11 97 21 40 23 53 20 174 -3 81 -8 130 -14 128 -5 -2 -12 -12 -13 -23 -2
-10 -9 -23 -14 -29 -7 -7 -9 -1 -5 18 3 22 0 30 -17 37 l-21 9 21 0 c29 1 39
30 18 46 -16 11 -16 13 2 23 17 10 15 12 -16 13 -31 2 -32 3 -7 6 24 4 27 9
27 43 0 27 -5 40 -17 45 -17 6 -17 7 1 21 18 13 15 19 -8 15 -5 -1 -6 5 -3 13
4 9 0 21 -7 28 -7 7 -13 27 -13 43 0 17 -2 36 -4 44 -2 9 5 17 16 19 34 7 41
22 10 22 -27 0 -28 1 -9 15 17 13 15 14 -33 15 -84 0 -97 14 -18 20 l70 5 -2
215 c-3 227 -9 300 -23 300 -5 0 -23 -15 -39 -32z m-210 -570 c27 -22 47 -43
44 -46 -2 -3 -27 16 -54 41 -62 58 -56 61 10 5z m-761 -17 c0 -10 -157 -26
-186 -18 -10 2 8 6 41 7 43 1 54 4 40 10 -14 6 -2 9 43 9 34 1 62 -3 62 -8z
m-262 -28 c-10 -2 -26 -2 -35 0 -10 3 -2 5 17 5 19 0 27 -2 18 -5z m1123 -40
c13 -16 12 -17 -3 -4 -10 7 -18 15 -18 17 0 8 8 3 21 -13z m-814 -60 c-2 -16
-4 -5 -4 22 0 28 2 40 4 28 2 -13 2 -35 0 -50z m853 38 c0 -6 -4 -13 -10 -16
-5 -3 -10 1 -10 9 0 9 5 16 10 16 6 0 10 -4 10 -9z m-1 -70 c0 -11 -4 -9 -11
7 -6 12 -15 22 -19 22 -5 0 -14 10 -20 23 -10 19 -7 17 20 -7 17 -17 31 -37
30 -45z m-246 -45 c-5 -63 -8 -69 -37 -87 -17 -10 -25 -19 -18 -19 9 0 12 -13
10 -47 -3 -46 -4 -47 -48 -61 -59 -18 -213 -10 -235 12 -17 17 -27 20 -107 36
l-58 11 0 47 c-1 26 -7 64 -15 86 l-13 38 56 -7 c31 -3 110 -15 175 -26 167
-27 210 -26 236 7 12 15 21 31 21 37 0 11 31 49 36 45 1 -2 0 -34 -3 -72z
m-1481 -143 c-4 -20 -7 -23 -10 -10 -2 9 -8 17 -13 17 -5 0 -9 5 -9 10 0 6 8
10 19 10 15 0 17 -5 13 -27z m1739 -28 c4 -22 7 -104 8 -182 1 -142 1 -143
-22 -144 -21 -1 -21 -1 3 -8 19 -5 26 -14 28 -39 3 -30 6 -32 43 -32 21 0 39
-4 39 -9 0 -13 -104 0 -112 14 -4 7 -34 16 -65 20 l-58 8 42 9 c45 10 56 27
40 65 -13 30 -2 53 25 54 21 1 21 2 3 6 -11 3 -23 10 -27 17 -4 6 -5 61 -2
123 l6 112 -83 3 c-72 3 -81 5 -59 15 14 6 61 10 105 10 l80 -2 6 -40z m-1788
29 c-7 -3 -9 -12 -6 -20 4 -10 0 -12 -11 -8 -27 10 -14 32 19 32 6 0 5 -2 -2
-4z m1648 -41 c0 -11 3 -13 6 -6 3 10 8 10 19 -1 24 -24 17 -46 -17 -53 -21
-4 -27 -9 -20 -16 16 -16 13 -54 -5 -61 -46 -18 -61 -3 -56 57 1 9 -3 17 -8
17 -9 0 -7 27 6 68 2 6 19 12 39 12 26 0 35 -4 36 -17z m-1601 -32 c0 -31 -4
-40 -21 -44 -15 -4 -19 -2 -15 10 3 8 6 20 7 26 0 7 4 3 9 -8 7 -16 9 -13 9
18 1 49 11 48 11 -2z m-90 -30 c0 -11 -4 -9 -15 5 -8 10 -15 25 -15 33 0 11 4
9 15 -5 8 -10 15 -25 15 -33z m22 14 c-3 -21 0 -35 7 -35 6 0 11 -5 11 -11 0
-8 -5 -8 -15 1 -15 13 -21 80 -7 80 4 0 6 -16 4 -35z m2068 16 c0 -6 -4 -13
-10 -16 -5 -3 -10 1 -10 9 0 9 5 16 10 16 6 0 10 -4 10 -9z m-2053 -33 c-3 -8
-6 -5 -6 6 -1 11 2 17 5 13 3 -3 4 -12 1 -19z m1940 -50 c-2 -13 -4 -5 -4 17
-1 22 1 32 4 23 2 -10 2 -28 0 -40z m-289 -68 c-2 -27 -5 -30 -38 -30 -28 0
-37 4 -37 18 -2 33 7 42 42 42 33 0 35 -2 33 -30z m-1784 -88 c-7 -32 -24 -35
-24 -3 0 16 20 44 27 37 2 -1 0 -17 -3 -34z m1778 8 c3 -20 0 -30 -9 -30 -7 0
-13 9 -13 20 0 11 -7 20 -16 20 -8 0 -12 5 -9 10 14 22 43 10 47 -20z m-220
-60 c7 -11 19 -20 27 -20 10 0 12 -12 8 -54 -6 -66 -11 -76 -42 -76 -13 0 -27
-4 -30 -10 -3 -5 -21 -10 -38 -10 -21 0 -28 3 -19 9 16 10 -40 21 -107 21 -60
0 -43 -13 27 -21 l57 -6 -70 -2 c-73 -1 -95 8 -95 40 0 27 -29 52 -45 39 -10
-8 -14 -7 -18 2 -7 20 5 82 17 90 6 4 71 8 145 8 141 0 177 -7 52 -11 -89 -3
-121 -8 -121 -21 0 -7 27 -8 75 -3 85 8 105 -1 105 -43 0 -33 10 -23 14 14 1
17 7 28 15 26 7 -1 10 2 7 7 -8 12 3 41 15 41 5 0 14 -9 21 -20z m1766 -70
c43 -46 112 -158 112 -182 0 -17 -3 -19 -9 -9 -5 8 -16 11 -24 8 -9 -3 -18 -1
-21 6 -2 7 -5 -1 -5 -16 -1 -16 -5 -26 -10 -23 -4 3 -7 18 -5 33 4 22 3 24 -4
9 -8 -19 -9 -18 -15 4 -3 13 -2 27 3 30 5 3 5 11 0 20 -9 13 -10 13 -11 0 0
-8 -4 -4 -8 10 -5 16 -3 31 6 41 7 8 13 19 13 24 0 5 -6 1 -13 -9 -12 -16 -14
-14 -27 23 -7 23 -19 46 -27 52 -7 6 -13 16 -13 21 0 12 23 -5 58 -42z m-1533
6 c26 -8 58 -24 70 -36 15 -14 25 -18 30 -11 8 14 42 14 50 1 4 -6 3 -10 -2
-9 -18 3 -33 -2 -33 -11 0 -5 7 -7 15 -4 19 8 20 -14 1 -35 -12 -14 -10 -29
20 -116 18 -55 33 -113 33 -130 0 -22 -6 -12 -19 35 -23 79 -60 168 -80 195
-51 67 -103 46 -213 -86 -15 -19 -25 -28 -21 -20 4 8 3 12 -3 8 -6 -4 -13 -20
-16 -37 -9 -41 -27 -38 -27 6 0 21 -4 33 -10 29 -6 -4 -8 -9 -6 -13 6 -11 -75
-17 -229 -17 -116 0 -140 3 -142 15 -2 8 4 23 11 33 12 15 29 18 108 18 51 1
103 0 116 -1 37 -3 114 42 132 77 10 18 33 50 53 72 48 54 81 61 162 37z
m1485 -88 c0 -18 -2 -20 -9 -8 -6 8 -7 18 -5 22 9 14 14 9 14 -14z m-25 -18
c3 -5 1 -10 -4 -10 -6 0 -11 5 -11 10 0 6 2 10 4 10 3 0 8 -4 11 -10z m60 -45
c9 -40 -3 -27 -15 15 -5 19 -6 29 -1 24 5 -5 12 -22 16 -39z m-3138 -161 c-2
-2 -36 3 -76 11 -39 9 -102 15 -139 15 -105 -2 -102 -3 -90 31 5 16 24 41 41
55 29 25 31 25 44 8 11 -14 30 -19 87 -22 66 -4 75 -2 102 21 l29 25 3 -70 c2
-39 1 -72 -1 -74z m3283 86 c0 -5 -4 -10 -10 -10 -5 0 -10 5 -10 10 0 6 5 10
10 10 6 0 10 -4 10 -10z m-6 -28 c3 -5 -1 -9 -9 -9 -8 0 -12 4 -9 9 3 4 7 8 9
8 2 0 6 -4 9 -8z m-1154 -52 l25 -8 -25 0 c-14 0 -38 4 -55 8 l-30 8 30 0 c17
0 41 -4 55 -8z m1155 -20 c-3 -5 -2 -10 4 -10 5 0 12 5 14 10 3 6 4 5 3 -2 -3
-17 -28 -17 -33 0 -3 6 0 12 7 12 6 0 8 -4 5 -10z m85 -32 c0 -13 -23 -5 -28
10 -2 7 2 10 12 6 9 -3 16 -11 16 -16z m-1740 2 c-8 -5 -10 -10 -4 -10 12 0
94 -105 94 -120 0 -6 -5 -10 -11 -10 -6 0 -8 -8 -5 -17 6 -17 5 -17 -7 -1 -15
19 -39 6 -31 -17 3 -7 1 -16 -5 -20 -28 -17 -3 -160 29 -170 24 -8 26 -23 4
-32 -25 -9 -64 38 -69 83 -2 21 -9 53 -14 69 -9 28 -9 27 -12 -20 -2 -46 -3
-47 -6 -12 -3 29 -10 40 -28 47 -21 8 -23 14 -19 57 9 102 47 183 86 183 9 0
9 -3 -2 -10z m325 1 c-10 -17 17 -24 89 -27 39 -1 80 -5 91 -9 l20 -7 -20 17
c-19 17 -19 17 14 11 18 -3 49 -6 67 -6 19 0 34 -4 34 -10 0 -5 -14 -10 -31
-10 l-31 0 26 -31 c14 -17 26 -43 26 -59 0 -31 -9 -30 150 -11 l54 6 12 60
c11 59 11 58 6 -35 -3 -52 -6 -97 -8 -99 -2 -3 -49 0 -105 5 -55 5 -103 7
-106 4 -2 -3 -50 -5 -105 -5 l-100 0 -19 -50 c-10 -27 -19 -50 -19 -50 0 -1
28 -2 61 -3 65 -3 109 15 109 43 0 34 15 12 16 -24 2 -37 0 -39 -35 -45 -20
-3 -71 -6 -113 -6 l-77 0 19 42 c11 26 17 54 13 73 -3 20 -2 26 5 17 8 -11 10
-11 15 1 3 8 -1 23 -9 34 -13 17 -14 17 -7 -2 3 -11 3 -17 -1 -13 -4 3 -9 27
-11 53 -2 34 -10 54 -29 74 -14 15 -26 34 -26 43 0 12 -11 18 -42 21 -37 3
-35 4 15 5 34 1 56 -2 52 -7z m645 -1 c-36 -11 -50 -11 -50 0 0 6 17 10 38 9
33 -1 34 -2 12 -9z m694 -35 c4 -13 -8 -15 -81 -15 -103 0 -107 9 -5 12 40 1
72 5 72 10 0 13 7 9 14 -7z m-467 -27 c-3 -8 -6 -5 -6 6 -1 11 2 17 5 13 3 -3
4 -12 1 -19z m-280 -25 c-3 -3 -11 -2 -17 2 -9 6 -9 10 1 16 14 8 27 -7 16
-18z m99 -19 c-19 -19 -21 -2 -4 29 11 19 13 20 16 5 2 -10 -4 -25 -12 -34z
m612 29 c-15 -2 -42 -2 -60 0 -18 2 -6 4 27 4 33 0 48 -2 33 -4z m-443 -109
c-5 -59 -4 -79 7 -86 10 -7 8 -8 -7 -6 -16 3 -21 13 -25 58 -4 45 -8 54 -22
52 -21 -3 -58 15 -58 28 0 6 23 10 50 10 28 0 50 5 50 10 0 6 3 10 6 10 4 0 3
-34 -1 -76z m-280 -209 l9 -30 7 25 c4 14 8 61 8 105 2 112 17 128 26 27 11
-125 -5 -190 -43 -178 -30 10 -34 28 -38 181 l-3 140 13 -120 c7 -66 17 -133
21 -150z m114 36 c1 -85 23 -48 29 48 6 102 22 95 22 -9 0 -91 -5 -110 -30
-110 -25 0 -31 22 -35 130 -3 77 -2 85 5 45 4 -27 9 -75 9 -104z m225 32 c3
-40 2 -73 -2 -73 -9 0 -30 152 -23 172 7 21 18 -22 25 -99z m-1134 62 c16 -19
0 -19 -26 0 -16 12 -16 14 -3 15 9 0 22 -7 29 -15z m-183 -37 c-3 -7 -5 -2 -5
12 0 14 2 19 5 13 2 -7 2 -19 0 -25z m1375 -28 c3 14 3 7 1 -15 -4 -40 -22
-73 -24 -44 0 7 -2 25 -4 39 -1 14 0 39 4 55 5 28 6 27 11 -15 5 -36 7 -40 12
-20z m348 49 c0 -5 -4 -9 -9 -9 -5 0 -16 -3 -25 -6 -10 -4 -16 -1 -16 7 0 8
11 15 25 15 14 1 25 -2 25 -7z m-1555 -9 c3 -5 1 -10 -4 -10 -6 0 -11 5 -11
10 0 6 2 10 4 10 3 0 8 -4 11 -10z m198 -57 c-13 -2 -33 -2 -45 0 -13 2 -3 4
22 4 25 0 35 -2 23 -4z m1156 -9 c11 -10 -10 -13 -52 -8 -26 4 -47 11 -47 16
0 10 89 2 99 -8z m201 -15 c0 -16 -4 -28 -9 -25 -8 5 -3 56 5 56 2 0 4 -14 4
-31z m-1137 4 c-7 -2 -13 -11 -13 -18 0 -10 -12 -12 -46 -8 -27 3 -50 0 -53
-6 -4 -6 -21 -11 -39 -13 -23 -2 -31 -6 -27 -17 4 -11 3 -12 -10 -1 -15 12
-20 4 -16 -22 0 -5 -6 -8 -15 -8 -11 0 -14 6 -8 23 11 38 23 46 60 40 19 -3
40 -1 48 6 8 7 30 11 50 9 20 -1 41 3 48 10 7 7 17 12 23 11 5 0 4 -3 -2 -6z
m34 -30 c-3 -10 -5 -4 -5 12 0 17 2 24 5 18 2 -7 2 -21 0 -30z m-529 -90 c9 3
26 8 37 13 18 7 18 6 6 -9 -27 -33 -111 -7 -111 34 0 7 11 0 25 -16 16 -16 33
-25 43 -22z m539 25 c-3 -8 -6 -5 -6 6 -1 11 2 17 5 13 3 -3 4 -12 1 -19z
m-124 -5 c-7 -2 -19 -2 -25 0 -7 3 -2 5 12 5 14 0 19 -2 13 -5z m90 0 c-7 -2
-19 -2 -25 0 -7 3 -2 5 12 5 14 0 19 -2 13 -5z m-1005 -40 c-10 -2 -28 -2 -40
0 -13 2 -5 4 17 4 22 1 32 -1 23 -4z m149 1 c-3 -3 -12 -4 -19 -1 -8 3 -5 6 6
6 11 1 17 -2 13 -5z m-1101 -63 c-10 -11 -16 -24 -13 -28 3 -5 -3 -10 -14 -10
-17 -2 -16 2 8 32 15 19 29 32 32 30 2 -3 -4 -14 -13 -24z m167 -28 c-7 -2
-19 -2 -25 0 -7 3 -2 5 12 5 14 0 19 -2 13 -5z m-250 -200 c-7 -2 -21 -2 -30
0 -10 3 -4 5 12 5 17 0 24 -2 18 -5z m717 -83 c18 -12 2 -12 -25 0 -13 6 -15
9 -5 9 8 0 22 -4 30 -9z"/>
<path d="M1823 1873 c9 -2 23 -2 30 0 6 3 -1 5 -18 5 -16 0 -22 -2 -12 -5z"/>
<path d="M1848 1773 c6 -2 18 -2 25 0 6 3 1 5 -13 5 -14 0 -19 -2 -12 -5z"/>
<path d="M1823 1743 c9 -2 17 -9 17 -14 0 -12 81 -11 100 1 11 7 5 10 -25 10
-22 0 -56 2 -75 4 -19 2 -27 1 -17 -1z"/>
<path d="M3780 1269 c0 -5 5 -7 10 -4 6 3 10 8 10 11 0 2 -4 4 -10 4 -5 0 -10
-5 -10 -11z"/>
<path d="M3797 1253 c-4 -3 -7 -11 -7 -17 0 -6 5 -5 12 2 6 6 9 14 7 17 -3 3
-9 2 -12 -2z"/>
<path d="M3821 1224 c0 -11 3 -14 6 -6 3 7 2 16 -1 19 -3 4 -6 -2 -5 -13z"/>
<path d="M2190 935 c0 -8 5 -15 10 -15 6 0 10 7 10 15 0 8 -4 15 -10 15 -5 0
-10 -7 -10 -15z"/>
<path d="M2162 849 c2 -7 10 -15 17 -17 8 -3 12 1 9 9 -2 7 -10 15 -17 17 -8
3 -12 -1 -9 -9z"/>
<path d="M1078 2599 c-2 -50 0 -128 3 -173 4 -61 6 -39 7 92 2 182 -4 234 -10
81z"/>
<path d="M3887 2629 c-83 -9 -154 -42 -222 -103 -49 -44 -49 -45 -22 -46 15 0
27 4 27 8 0 17 77 90 105 99 17 6 89 10 161 9 101 -1 131 1 131 11 0 23 -83
32 -180 22z"/>
<path d="M0 2593 l0 -36 98 6 c53 4 125 7 160 7 37 0 62 4 62 11 0 7 -39 10
-119 8 -79 -2 -124 1 -133 8 -7 7 -26 16 -41 22 -26 10 -27 10 -27 -26z"/>
<path d="M2886 2591 c-3 -5 3 -11 14 -14 13 -3 20 -13 19 -29 l0 -23 -9 23
c-5 12 -12 22 -16 22 -3 0 -4 -7 0 -15 3 -8 2 -15 -3 -15 -5 0 -11 10 -14 21
-5 19 -11 21 -44 16 -21 -4 -51 -7 -66 -7 -28 0 -43 -19 -34 -43 3 -9 23 -11
78 -6 89 7 113 -2 105 -39 -7 -32 6 -57 25 -50 8 2 22 -4 32 -14 9 -10 15 -18
12 -18 -12 0 224 -235 258 -256 21 -14 41 -32 44 -41 3 -8 42 -50 87 -92 44
-42 95 -91 113 -108 19 -18 36 -33 39 -33 11 0 -41 59 -57 65 -9 3 -20 14 -25
25 -5 10 -64 77 -131 148 -116 122 -157 173 -96 116 15 -14 29 -21 31 -15 2 6
22 12 45 12 30 2 34 3 15 6 -16 2 -28 8 -28 13 0 5 -13 11 -28 15 -28 6 -108
83 -266 255 -76 82 -92 95 -100 81z"/>
<path d="M2504 2425 c0 -71 1 -99 3 -62 2 37 2 96 0 130 -2 34 -3 4 -3 -68z"/>
<path d="M2581 2406 c10 -9 109 -56 109 -52 0 8 -86 56 -100 56 -7 0 -11 -2
-9 -4z"/>
<path d="M1200 2330 c0 -13 7 -20 20 -20 18 0 19 2 8 20 -7 11 -16 20 -20 20
-5 0 -8 -9 -8 -20z"/>
<path d="M1068 2326 c-36 -27 -21 -37 45 -30 74 8 86 14 29 14 -31 0 -42 4
-42 15 0 18 -9 19 -32 1z"/>
<path d="M3348 2223 c6 -2 18 -2 25 0 6 3 1 5 -13 5 -14 0 -19 -2 -12 -5z"/>
<path d="M721 2187 c-1 -16 5 -30 14 -34 22 -8 29 2 16 24 -6 10 -11 14 -11 8
-1 -5 -5 -1 -10 10 -8 18 -9 17 -9 -8z"/>
<path d="M2590 2196 c0 -8 -7 -17 -16 -20 -13 -5 -14 -15 -9 -49 4 -23 12 -46
19 -52 25 -20 36 -55 36 -119 0 -56 2 -64 16 -59 9 3 12 9 7 12 -4 3 -9 32
-11 64 -1 32 -6 66 -11 76 -6 10 -4 25 5 41 19 35 17 73 -5 98 -21 25 -31 28
-31 8z"/>
<path d="M4035 2163 c-38 -21 -62 -51 -71 -88 -3 -16 -12 -33 -18 -37 -6 -4
-116 -7 -244 -8 -128 0 -238 -2 -243 -5 -5 -4 -9 -1 -9 4 0 6 -7 11 -15 11
-14 0 -13 -3 2 -24 10 -13 21 -22 24 -21 3 2 20 -20 39 -48 18 -29 52 -75 74
-104 l41 -52 176 0 176 -1 22 48 c16 33 21 39 18 20 -5 -32 4 -35 27 -12 9 8
20 12 26 9 7 -4 10 51 10 159 0 91 -1 166 -2 166 -2 -1 -16 -8 -33 -17z"/>
<path d="M757 2133 c-5 -7 -17 -13 -28 -13 -10 0 -19 -4 -19 -10 0 -5 8 -10
18 -10 13 0 14 -2 3 -9 -10 -6 -10 -10 -1 -16 7 -4 9 -18 4 -38 -3 -16 -7 -48
-9 -69 -2 -32 1 -38 17 -38 10 0 21 6 24 13 8 22 0 203 -9 190z"/>
<path d="M685 1947 c-4 -10 -5 -21 -1 -24 10 -10 18 4 13 24 -4 17 -4 17 -12
0z"/>
<path d="M1055 1902 c-11 -7 -47 -61 -84 -124 -13 -21 -25 -38 -28 -38 -3 0
-4 28 -3 63 3 86 2 93 -11 80 -6 -6 -13 -55 -16 -109 -6 -87 -9 -103 -35 -138
-26 -36 -28 -37 -29 -15 -1 47 2 165 6 207 3 30 1 42 -8 42 -16 0 -39 -174
-36 -270 1 -49 -3 -75 -18 -104 l-20 -39 -13 159 c-7 87 -11 176 -8 197 4 39
-13 52 -27 20 -4 -10 -9 -133 -10 -273 -2 -155 -7 -277 -15 -310 -15 -70 -11
-114 13 -118 12 -3 19 5 23 26 5 22 11 28 24 25 22 -6 32 20 20 53 -17 43 -11
106 14 159 l23 50 7 -80 c11 -117 24 -176 42 -197 23 -24 37 -12 29 26 -3 17
-8 40 -10 51 -2 11 -9 78 -15 149 -10 129 -10 129 15 173 14 23 27 43 28 43 1
0 3 -30 5 -68 4 -80 38 -296 53 -334 17 -41 48 -35 39 7 -10 47 -49 315 -55
373 -7 71 -6 75 30 145 21 40 40 75 44 79 3 4 4 -28 3 -70 -2 -42 1 -194 8
-337 9 -198 15 -263 25 -274 8 -8 18 -11 22 -7 10 10 7 172 -7 366 -20 295
-23 387 -11 394 12 8 15 26 4 26 -5 0 -13 -4 -18 -8z"/>
<path d="M1513 1880 c6 -16 13 -27 15 -25 7 7 -8 55 -17 55 -5 0 -4 -13 2 -30z"/>
<path d="M1205 1880 c-13 -21 -23 -405 -13 -515 10 -126 23 -175 45 -175 13 0
15 10 9 63 -19 179 -26 288 -26 440 -1 92 2 171 5 177 3 5 1 11 -4 14 -5 4
-13 2 -16 -4z"/>
<path d="M1326 1843 c-3 -27 -11 -127 -17 -223 -13 -209 -7 -371 16 -406 28
-44 38 -29 29 44 -5 37 -9 194 -9 350 0 155 -3 282 -6 282 -4 0 -9 -21 -13
-47z"/>
<path d="M1426 1823 c-12 -132 -19 -419 -11 -516 5 -71 12 -103 25 -120 29
-35 43 -12 30 49 -14 59 -19 170 -19 447 -1 205 -12 270 -25 140z"/>
<path d="M1521 1808 c-1 -21 4 -38 9 -38 11 0 11 14 0 50 -7 22 -8 21 -9 -12z"/>
<path d="M373 1363 c-62 -6 -53 -23 11 -23 65 0 116 9 116 21 0 9 -43 9 -127
2z"/>
<path d="M2600 1261 c0 -5 5 -13 10 -16 6 -3 10 -2 10 4 0 5 -4 13 -10 16 -5
3 -10 2 -10 -4z"/>
<path d="M2635 1260 c-3 -5 -1 -10 4 -10 6 0 11 5 11 10 0 6 -2 10 -4 10 -3 0
-8 -4 -11 -10z"/>
<path d="M2708 1243 c7 -3 16 -2 19 1 4 3 -2 6 -13 5 -11 0 -14 -3 -6 -6z"/>
<path d="M0 1091 c0 -8 93 -41 115 -41 4 0 29 -11 55 -24 l48 -24 11 43 c6 24
11 46 11 49 0 3 -54 6 -120 6 -67 0 -120 -4 -120 -9z"/>
<path d="M0 1021 c0 -37 1 -39 38 -43 37 -5 132 18 132 32 0 7 -76 25 -92 22
-4 -1 -23 5 -42 13 l-36 15 0 -39z"/>
<path d="M868 953 c-40 -4 -44 -9 -29 -32 5 -8 6 -24 1 -37 -10 -26 6 -37 32
-20 12 7 14 15 7 27 -8 16 -7 16 20 3 22 -11 58 -13 156 -10 103 4 127 2 132
-10 12 -31 24 -11 21 34 l-3 47 -150 1 c-82 0 -167 -1 -187 -3z"/>
<path d="M2010 930 c16 -16 20 -33 20 -80 0 -44 -4 -60 -14 -60 -21 0 -40 -27
-24 -33 23 -9 -166 -7 -206 3 -22 5 -51 17 -65 28 -25 18 -82 29 -206 38 -33
3 -76 7 -95 9 -143 18 -153 18 -165 2 -10 -13 -44 -16 -228 -19 -169 -2 -217
0 -217 10 0 6 -12 13 -27 13 -16 1 -41 2 -58 3 -48 3 -117 -13 -129 -29 -22
-30 -269 -49 -329 -26 l-28 11 3 -108 3 -107 330 -5 c182 -3 583 -3 893 -1
492 3 565 6 579 19 13 14 15 39 10 166 -3 83 -8 159 -12 169 -4 9 -18 17 -31
17 l-24 0 20 -20z m-1370 -125 c0 -9 -6 -12 -16 -8 -13 5 -13 7 -2 14 17 11
18 11 18 -6z m783 -42 c-3 -55 -6 -58 -30 -44 -17 10 -17 10 0 11 13 0 17 9
17 40 0 22 4 40 8 40 4 0 6 -21 5 -47z m604 -25 c-3 -7 -5 -2 -5 12 0 14 2 19
5 13 2 -7 2 -19 0 -25z"/>
<path d="M78 733 c7 -3 16 -2 19 1 4 3 -2 6 -13 5 -11 0 -14 -3 -6 -6z"/>
<path d="M3970 416 c-41 -18 -91 -40 -110 -48 -102 -47 -450 -185 -635 -252
-55 -21 -145 -54 -200 -74 l-100 -37 115 -3 c63 -1 124 2 135 7 109 52 670
303 710 318 22 8 63 25 90 37 28 13 60 27 73 30 15 5 22 15 22 32 0 31 -10 30
-100 -10z m5 -36 c-53 -24 -80 -25 -35 -1 19 10 44 19 55 19 12 0 4 -7 -20
-18z"/>
<path d="M2835 140 c-16 -7 -17 -9 -3 -9 9 -1 20 4 23 9 7 11 7 11 -20 0z"/>
<path d="M2738 103 c7 -3 16 -2 19 1 4 3 -2 6 -13 5 -11 0 -14 -3 -6 -6z"/>
</g>
</svg>
